<?xml version="1.0" encoding="UTF-8"?>
<svg id="_图层_1" data-name="图层 1" xmlns="http://www.w3.org/2000/svg" xmlns:xlink="http://www.w3.org/1999/xlink" viewBox="0 0 1221.03 769">
  <defs>
    <style>
      .cls-1 {
        fill: url(#_未命名的渐变_44-2);
      }

      .cls-2 {
        fill: url(#_未命名的渐变_48-2);
      }

      .cls-3, .cls-4, .cls-5 {
        fill: #fff;
      }

      .cls-4 {
        font-family: DOSPilgiMedium, DOSPilgi;
        font-size: 92.01px;
        letter-spacing: .04em;
      }

      .cls-5 {
        font-family: DOSSaemmul, DOSSaemmul;
        font-size: 276.03px;
        letter-spacing: .04em;
      }

      .cls-6 {
        fill: url(#_未命名的渐变_44);
      }

      .cls-7 {
        fill: url(#_未命名的渐变_48);
      }
    </style>
    <linearGradient id="_未命名的渐变_48" data-name="未命名的渐变 48" x1="303" y1="112" x2="1006" y2="112" gradientUnits="userSpaceOnUse">
      <stop offset="0" stop-color="#0461fc"/>
      <stop offset="0" stop-color="#028cfe"/>
      <stop offset="0" stop-color="#02b6fb"/>
      <stop offset="1" stop-color="#0555fa"/>
    </linearGradient>
    <linearGradient id="_未命名的渐变_48-2" data-name="未命名的渐变 48" x1="899" y1="186.51" x2="1054" y2="186.51" xlink:href="#_未命名的渐变_48"/>
    <linearGradient id="_未命名的渐变_44" data-name="未命名的渐变 44" x1="0" y1="455" x2="137" y2="455" gradientUnits="userSpaceOnUse">
      <stop offset="0" stop-color="#0461fc"/>
      <stop offset=".25" stop-color="#02c2fe"/>
      <stop offset=".5" stop-color="#028cfe"/>
      <stop offset=".75" stop-color="#02b6fb"/>
      <stop offset="1" stop-color="#0555fa"/>
    </linearGradient>
    <linearGradient id="_未命名的渐变_44-2" data-name="未命名的渐变 44" x1="131" y1="599.5" x2="776" y2="599.5" xlink:href="#_未命名的渐变_44"/>
  </defs>
  <text class="cls-5" transform="translate(15.21 424.77) scale(.98) skewX(-12)"><tspan x="0" y="0">LeadRise</tspan></text>
  <path class="cls-3" d="M743.03,334.18l3.74-8.43-5.33-5.67,8.8-.75,5.05-7.95,1.67,7.95,8.48.75-7.75,5.67.16,8.43-6.46-4.47-8.36,4.47Z"/>
  <path class="cls-3" d="M1175.03,480.18l3.74-8.43-5.33-5.67,8.8-.75,5.05-7.95,1.67,7.95,8.48.75-7.75,5.67.16,8.43-6.46-4.47-8.36,4.47Z"/>
  <text class="cls-4" transform="translate(778.49 508.63) scale(.98) skewX(-12)"><tspan x="0" y="0">领起科技</tspan></text>
  <g>
    <path class="cls-7" d="M954,0l-250.52,145.99-1.48-.48,40.98-74.02c.1-.32-2.34-1.48-2.48-1.48h-87.68c-24.66,13.02-49.5,25.77-74.33,38.45-44.45,22.68-88.82,47.05-134.22,67.39l-64.71.17-76.56,40.71v7.29h137l225.5-117.01,1.49,1.49-59.98,115.52h70l215.99-124-69.99,124h55L1006,0h-52Z"/>
    <polygon class="cls-2" points="976.5 149.02 899 224 1054 224 976.5 149.02"/>
  </g>
  <g>
    <polygon class="cls-6" points="16.14 430.14 0 480 60 480 137 430 16.14 430.14"/>
    <path class="cls-1" d="M702.31,520.29l37.69-88.29h-119l-134.36,61.7,22.36-36.7,17-26-150.86.36.34.25-161.35,77.69-.19-.29h-12.9l41.95-79-51.86.14-60.14,112.86h103.78l.22.36c58.67-28.79,117.33-57.57,176-86.36h38.83l-127.83,219-53,93h28l456-228,23-56-73.69,35.29ZM447.66,557.71l227.97-100.55-54.07,101.78-246.56,118.05,72.66-119.29Z"/>
  </g>
</svg>